<svg xmlns="http://www.w3.org/2000/svg" width="805" height="300"><rect width="805" height="300" x="0" y="0" fill="#FFFFFF" id="background"/><g id="viz"><g transform="translate(0,0)"><g transform="translate(10,20)"><g><path fill="#bd10e0" d="M0,127.5625C2.205056179775281,127.5625,2.205056179775281,127.5625,4.410112359550562,127.5625C6.615168539325842,127.5625,6.615168539325842,128.375,8.820224719101123,128.375C11.025280898876403,128.375,11.025280898876403,128.375,13.230337078651685,128.375C15.435393258426966,128.375,15.435393258426966,128.375,17.640449438202246,128.375C19.84550561797753,128.375,19.84550561797753,128.375,22.05056179775281,128.375C24.25561797752809,128.375,24.25561797752809,128.375,26.46067415730337,128.375C28.66573033707865,128.375,28.66573033707865,127.5625,30.870786516853933,127.5625C33.07584269662921,127.5625,33.07584269662921,127.5625,35.28089887640449,127.5625C37.485955056179776,127.5625,37.485955056179776,129.1875,39.69101123595505,129.1875C41.896067415730336,129.1875,41.896067415730336,128.375,44.10112359550562,128.375C46.306179775280896,128.375,46.306179775280896,127.5625,48.51123595505618,127.5625C50.71629213483146,127.5625,50.71629213483146,128.375,52.92134831460674,128.375C55.126404494382015,128.375,55.126404494382015,128.375,57.3314606741573,128.375C59.53651685393258,128.375,59.53651685393258,127.5625,61.741573033707866,127.5625C63.94662921348314,127.5625,63.94662921348314,126.75000000000001,66.15168539325842,126.75000000000001C68.3567415730337,126.75000000000001,68.3567415730337,126.75000000000001,70.56179775280899,126.75000000000001C72.76685393258427,126.75000000000001,72.76685393258427,127.5625,74.97191011235955,127.5625C77.17696629213484,127.5625,77.17696629213484,128.375,79.3820224719101,128.375C81.58707865168539,128.375,81.58707865168539,128.375,83.79213483146067,128.375C85.99719101123596,128.375,85.99719101123596,127.5625,88.20224719101124,127.5625C90.40730337078651,127.5625,90.40730337078651,128.375,92.61235955056179,128.375C94.81741573033707,128.375,94.81741573033707,127.5625,97.02247191011236,127.5625C99.22752808988764,127.5625,99.22752808988764,127.5625,101.43258426966293,127.5625C103.63764044943821,127.5625,103.63764044943821,128.375,105.84269662921348,128.375C108.04775280898878,128.375,108.04775280898878,128.375,110.25280898876406,128.375C112.45786516853933,128.375,112.45786516853933,129.1875,114.6629213483146,129.1875C116.86797752808988,129.1875,116.86797752808988,128.375,119.07303370786518,128.375C121.27808988764045,128.375,121.27808988764045,128.375,123.48314606741573,128.375C125.68820224719101,128.375,125.68820224719101,128.375,127.8932584269663,128.375C130.09831460674155,128.375,130.09831460674155,128.375,132.30337078651684,128.375C134.50842696629212,128.375,134.50842696629212,128.375,136.71348314606743,128.375C138.9185393258427,128.375,138.9185393258427,128.375,141.12359550561797,128.375C143.32865168539325,128.375,143.32865168539325,129.1875,145.53370786516854,129.1875C147.73876404494382,129.1875,147.73876404494382,128.375,149.9438202247191,128.375C152.1488764044944,128.375,152.1488764044944,128.375,154.35393258426967,128.375C156.55898876404495,128.375,156.55898876404495,127.5625,158.7640449438202,127.5625C160.96910112359552,127.5625,160.96910112359552,128.375,163.1741573033708,128.375C165.3792134831461,128.375,165.3792134831461,128.375,167.58426966292134,128.375C169.78932584269663,128.375,169.78932584269663,128.375,171.9943820224719,128.375C174.1994382022472,128.375,174.1994382022472,128.375,176.40449438202248,128.375C178.60955056179776,128.375,178.60955056179776,128.375,180.81460674157304,128.375C183.0196629213483,128.375,183.0196629213483,129.1875,185.22471910112358,129.1875C187.42977528089887,129.1875,187.42977528089887,128.375,189.63483146067415,128.375C191.83988764044943,128.375,191.83988764044943,128.375,194.04494382022472,128.375C196.25,128.375,196.25,128.375,198.45505617977528,128.375C200.66011235955057,128.375,200.66011235955057,129.1875,202.86516853932585,129.1875C205.07022471910113,129.1875,205.07022471910113,128.375,207.2752808988764,128.375C209.48033707865167,128.375,209.48033707865167,128.375,211.68539325842696,128.375C213.89044943820224,128.375,213.89044943820224,129.1875,216.09550561797752,129.1875C218.30056179775283,129.1875,218.30056179775283,128.375,220.50561797752812,128.375C222.71067415730337,128.375,222.71067415730337,128.375,224.91573033707863,128.375C227.1207865168539,128.375,227.1207865168539,128.375,229.3258426966292,128.375C231.53089887640448,128.375,231.53089887640448,128.375,233.7359550561798,128.375C235.94101123595507,128.375,235.94101123595507,128.375,238.14606741573036,128.375C240.3511235955056,128.375,240.3511235955056,128.375,242.55617977528087,128.375C244.76123595505618,128.375,244.76123595505618,128.375,246.96629213483146,128.375C249.17134831460675,128.375,249.17134831460675,128.375,251.37640449438203,128.375C253.5814606741573,128.375,253.5814606741573,128.375,255.7865168539326,128.375C257.9915730337078,128.375,257.9915730337078,128.375,260.1966292134831,128.375C262.4016853932584,128.375,262.4016853932584,127.5625,264.6067415730337,127.5625C266.81179775280896,127.5625,266.81179775280896,127.5625,269.0168539325843,127.5625C271.2219101123596,127.5625,271.2219101123596,127.5625,273.42696629213486,127.5625C275.6320224719101,127.5625,275.6320224719101,128.375,277.8370786516854,128.375C280.04213483146066,128.375,280.04213483146066,128.375,282.24719101123594,128.375C284.4522471910112,128.375,284.4522471910112,127.5625,286.6573033707865,127.5625C288.8623595505618,127.5625,288.8623595505618,127.5625,291.0674157303371,127.5625C293.27247191011236,127.5625,293.27247191011236,128.375,295.47752808988764,128.375C297.6825842696629,128.375,297.6825842696629,126.75000000000001,299.8876404494382,126.75000000000001C302.0926966292135,126.75000000000001,302.0926966292135,127.5625,304.2977528089888,127.5625C306.50280898876406,127.5625,306.50280898876406,127.5625,308.70786516853934,127.5625C310.9129213483146,127.5625,310.9129213483146,130,313.11797752808985,130C315.32303370786514,130,315.32303370786514,130.8125,317.5280898876404,130.8125C319.7331460674157,130.8125,319.7331460674157,126.75000000000001,321.938202247191,126.75000000000001C324.1432584269663,126.75000000000001,324.1432584269663,109.6875,326.3483146067416,109.6875C328.5533707865169,109.6875,328.5533707865169,130,330.7584269662921,130C332.9634831460674,130,332.9634831460674,119.4375,335.1685393258427,119.4375C337.37359550561797,119.4375,337.37359550561797,117.8125,339.57865168539325,117.8125C341.78370786516854,117.8125,341.78370786516854,125.9375,343.9887640449438,125.9375C346.1938202247191,125.9375,346.1938202247191,82.875,348.3988764044944,82.875C350.60393258426967,82.875,350.60393258426967,132.4375,352.80898876404495,132.4375C355.01404494382024,132.4375,355.01404494382024,130.8125,357.2191011235955,130.8125C359.4241573033708,130.8125,359.4241573033708,121.06249999999999,361.6292134831461,121.06249999999999C363.8342696629213,121.06249999999999,363.8342696629213,112.125,366.0393258426966,112.125C368.2443820224719,112.125,368.2443820224719,129.1875,370.44943820224717,129.1875C372.65449438202245,129.1875,372.65449438202245,128.375,374.85955056179773,128.375C377.064606741573,128.375,377.064606741573,120.25,379.2696629213483,120.25C381.4747191011236,120.25,381.4747191011236,125.12499999999999,383.67977528089887,125.12499999999999C385.88483146067415,125.12499999999999,385.88483146067415,127.5625,388.08988764044943,127.5625C390.2949438202247,127.5625,390.2949438202247,127.5625,392.5,127.5625C394.7050561797753,127.5625,394.7050561797753,121.875,396.91011235955057,121.875C399.11516853932585,121.875,399.11516853932585,121.875,401.32022471910113,121.875C403.5252808988764,121.875,403.5252808988764,124.3125,405.7303370786517,124.3125C407.935393258427,124.3125,407.935393258427,124.3125,410.14044943820227,124.3125C412.34550561797755,124.3125,412.34550561797755,126.75000000000001,414.5505617977528,126.75000000000001C416.75561797752806,126.75000000000001,416.75561797752806,125.12499999999999,418.96067415730334,125.12499999999999C421.1657303370786,125.12499999999999,421.1657303370786,124.3125,423.3707865168539,124.3125C425.5758426966292,124.3125,425.5758426966292,124.3125,427.7808988764045,124.3125C429.98595505617976,124.3125,429.98595505617976,125.12499999999999,432.19101123595505,125.12499999999999C434.39606741573033,125.12499999999999,434.39606741573033,123.5,436.6011235955056,123.5C438.80617977528095,123.5,438.80617977528095,125.12499999999999,441.01123595505624,125.12499999999999C443.2162921348315,125.12499999999999,443.2162921348315,121.06249999999999,445.4213483146068,121.06249999999999C447.62640449438203,121.06249999999999,447.62640449438203,121.06249999999999,449.83146067415726,121.06249999999999C452.03651685393254,121.06249999999999,452.03651685393254,119.4375,454.2415730337078,119.4375C456.4466292134831,119.4375,456.4466292134831,120.25,458.6516853932584,120.25C460.8567415730337,120.25,460.8567415730337,112.93749999999999,463.061797752809,112.93749999999999C465.2668539325843,112.93749999999999,465.2668539325843,106.43750000000001,467.4719101123596,106.43750000000001C469.67696629213486,106.43750000000001,469.67696629213486,109.6875,471.88202247191015,109.6875C474.08707865168543,109.6875,474.08707865168543,114.56250000000001,476.2921348314607,114.56250000000001C478.497191011236,114.56250000000001,478.497191011236,110.50000000000001,480.7022471910113,110.50000000000001C482.9073033707865,110.50000000000001,482.9073033707865,109.6875,485.11235955056173,109.6875C487.3174157303371,109.6875,487.3174157303371,113.75,489.52247191011236,113.75C491.72752808988764,113.75,491.72752808988764,114.56250000000001,493.9325842696629,114.56250000000001C496.1376404494382,114.56250000000001,496.1376404494382,113.75,498.3426966292135,113.75C500.5477528089888,113.75,500.5477528089888,113.75,502.75280898876406,113.75C504.95786516853934,113.75,504.95786516853934,114.56250000000001,507.1629213483146,114.56250000000001C509.3679775280899,114.56250000000001,509.3679775280899,113.75,511.5730337078652,113.75C513.7780898876405,113.75,513.7780898876405,112.125,515.9831460674158,112.125C518.1882022471909,112.125,518.1882022471909,116.99999999999999,520.3932584269662,116.99999999999999C522.5983146067415,116.99999999999999,522.5983146067415,114.56250000000001,524.8033707865168,114.56250000000001C527.0084269662921,114.56250000000001,527.0084269662921,117.8125,529.2134831460673,117.8125C531.4185393258426,117.8125,531.4185393258426,112.93749999999999,533.623595505618,112.93749999999999C535.8286516853933,112.93749999999999,535.8286516853933,120.25,538.0337078651686,120.25C540.2387640449439,120.25,540.2387640449439,117.8125,542.4438202247192,117.8125C544.6488764044944,117.8125,544.6488764044944,117.8125,546.8539325842697,117.8125C549.058988764045,117.8125,549.058988764045,116.99999999999999,551.2640449438203,116.99999999999999C553.4691011235955,116.99999999999999,553.4691011235955,118.62500000000001,555.6741573033707,118.62500000000001C557.879213483146,118.62500000000001,557.879213483146,121.06249999999999,560.0842696629213,121.06249999999999C562.2893258426966,121.06249999999999,562.2893258426966,118.62500000000001,564.4943820224719,118.62500000000001C566.6994382022472,118.62500000000001,566.6994382022472,117.8125,568.9044943820224,117.8125C571.1095505617977,117.8125,571.1095505617977,120.25,573.314606741573,120.25C575.5196629213483,120.25,575.5196629213483,120.25,577.7247191011236,120.25C579.9297752808989,120.25,579.9297752808989,121.875,582.1348314606741,121.875C584.3398876404494,121.875,584.3398876404494,123.5,586.5449438202247,123.5C588.75,123.5,588.75,123.5,590.9550561797753,123.5C593.1601123595506,123.5,593.1601123595506,121.06249999999999,595.3651685393259,121.06249999999999C597.5702247191011,121.06249999999999,597.5702247191011,121.875,599.7752808988764,121.875C601.9803370786517,121.875,601.9803370786517,122.68750000000001,604.185393258427,122.68750000000001C606.3904494382023,122.68750000000001,606.3904494382023,123.5,608.5955056179776,123.5C610.8005617977528,123.5,610.8005617977528,124.3125,613.0056179775281,124.3125C615.2106741573034,124.3125,615.2106741573034,124.3125,617.4157303370787,124.3125C619.620786516854,124.3125,619.620786516854,121.06249999999999,621.8258426966293,121.06249999999999C624.0308988764045,121.06249999999999,624.0308988764045,122.68750000000001,626.2359550561797,122.68750000000001C628.441011235955,122.68750000000001,628.441011235955,121.875,630.6460674157303,121.875C632.8511235955056,121.875,632.8511235955056,121.875,635.0561797752808,121.875C637.2612359550561,121.875,637.2612359550561,121.06249999999999,639.4662921348314,121.06249999999999C641.6713483146067,121.06249999999999,641.6713483146067,122.68750000000001,643.876404494382,122.68750000000001C646.0814606741574,122.68750000000001,646.0814606741574,120.25,648.2865168539327,120.25C650.4915730337079,120.25,650.4915730337079,120.25,652.6966292134832,120.25C654.9016853932585,120.25,654.9016853932585,120.25,657.1067415730338,120.25C659.3117977528091,120.25,659.3117977528091,119.4375,661.5168539325842,119.4375C663.7219101123595,119.4375,663.7219101123595,120.25,665.9269662921348,120.25C668.1320224719101,120.25,668.1320224719101,119.4375,670.3370786516854,119.4375C672.5421348314607,119.4375,672.5421348314607,121.06249999999999,674.7471910112359,121.06249999999999C676.9522471910112,121.06249999999999,676.9522471910112,118.62500000000001,679.1573033707865,118.62500000000001C681.3623595505618,118.62500000000001,681.3623595505618,119.4375,683.5674157303371,119.4375C685.7724719101124,119.4375,685.7724719101124,118.62500000000001,687.9775280898876,118.62500000000001C690.1825842696629,118.62500000000001,690.1825842696629,121.06249999999999,692.3876404494382,121.06249999999999C694.5926966292135,121.06249999999999,694.5926966292135,120.25,696.7977528089888,120.25C699.0028089887641,120.25,699.0028089887641,121.06249999999999,701.2078651685393,121.06249999999999C703.4129213483146,121.06249999999999,703.4129213483146,121.06249999999999,705.6179775280899,121.06249999999999C707.8230337078652,121.06249999999999,707.8230337078652,120.25,710.0280898876405,120.25C712.2331460674158,120.25,712.2331460674158,121.875,714.438202247191,121.875C716.6432584269663,121.875,716.6432584269663,121.06249999999999,718.8483146067416,121.06249999999999C721.0533707865169,121.06249999999999,721.0533707865169,121.06249999999999,723.2584269662922,121.06249999999999C725.4634831460675,121.06249999999999,725.4634831460675,119.4375,727.6685393258427,119.4375C729.8735955056179,119.4375,729.8735955056179,119.4375,732.0786516853932,119.4375C734.2837078651685,119.4375,734.2837078651685,117.8125,736.4887640449438,117.8125C738.693820224719,117.8125,738.693820224719,120.25,740.8988764044943,120.25C743.1039325842696,120.25,743.1039325842696,121.06249999999999,745.3089887640449,121.06249999999999C747.5140449438202,121.06249999999999,747.5140449438202,119.4375,749.7191011235955,119.4375C751.9241573033707,119.4375,751.9241573033707,121.06249999999999,754.129213483146,121.06249999999999C756.3342696629213,121.06249999999999,756.3342696629213,120.25,758.5393258426966,120.25C760.7443820224719,120.25,760.7443820224719,121.06249999999999,762.9494382022473,121.06249999999999C765.1544943820224,121.06249999999999,765.1544943820224,121.06249999999999,767.3595505617977,121.06249999999999C769.564606741573,121.06249999999999,769.564606741573,119.4375,771.7696629213483,119.4375C773.9747191011236,119.4375,773.9747191011236,119.4375,776.1797752808989,119.4375C778.3848314606741,119.4375,778.3848314606741,120.25,780.5898876404494,120.25C782.7949438202247,120.25,782.7949438202247,120.25,785,120.25L785,152.75C782.7949438202247,152.75,782.7949438202247,152.75,780.5898876404494,152.75C778.3848314606741,152.75,778.3848314606741,153.5625,776.1797752808989,153.5625C773.9747191011236,153.5625,773.9747191011236,153.5625,771.7696629213483,153.5625C769.564606741573,153.5625,769.564606741573,153.5625,767.3595505617977,153.5625C765.1544943820224,153.5625,765.1544943820224,155.1875,762.9494382022473,155.1875C760.7443820224719,155.1875,760.7443820224719,154.375,758.5393258426966,154.375C756.3342696629213,154.375,756.3342696629213,153.5625,754.129213483146,153.5625C751.9241573033707,153.5625,751.9241573033707,155.1875,749.7191011235955,155.1875C747.5140449438202,155.1875,747.5140449438202,155.1875,745.3089887640449,155.1875C743.1039325842696,155.1875,743.1039325842696,154.375,740.8988764044943,154.375C738.693820224719,154.375,738.693820224719,156.8125,736.4887640449438,156.8125C734.2837078651685,156.8125,734.2837078651685,155.1875,732.0786516853932,155.1875C729.8735955056179,155.1875,729.8735955056179,155.1875,727.6685393258427,155.1875C725.4634831460675,155.1875,725.4634831460675,153.5625,723.2584269662922,153.5625C721.0533707865169,153.5625,721.0533707865169,155.1875,718.8483146067416,155.1875C716.6432584269663,155.1875,716.6432584269663,154.375,714.438202247191,154.375C712.2331460674158,154.375,712.2331460674158,154.375,710.0280898876405,154.375C707.8230337078652,154.375,707.8230337078652,155.1875,705.6179775280899,155.1875C703.4129213483146,155.1875,703.4129213483146,155.1875,701.2078651685393,155.1875C699.0028089887641,155.1875,699.0028089887641,156,696.7977528089888,156C694.5926966292135,156,694.5926966292135,156.8125,692.3876404494382,156.8125C690.1825842696629,156.8125,690.1825842696629,157.625,687.9775280898876,157.625C685.7724719101124,157.625,685.7724719101124,158.4375,683.5674157303371,158.4375C681.3623595505618,158.4375,681.3623595505618,159.25,679.1573033707865,159.25C676.9522471910112,159.25,676.9522471910112,156.8125,674.7471910112359,156.8125C672.5421348314607,156.8125,672.5421348314607,158.4375,670.3370786516854,158.4375C668.1320224719101,158.4375,668.1320224719101,157.625,665.9269662921348,157.625C663.7219101123595,157.625,663.7219101123595,158.4375,661.5168539325842,158.4375C659.3117977528091,158.4375,659.3117977528091,159.25,657.1067415730338,159.25C654.9016853932585,159.25,654.9016853932585,159.25,652.6966292134832,159.25C650.4915730337079,159.25,650.4915730337079,157.625,648.2865168539327,157.625C646.0814606741574,157.625,646.0814606741574,153.5625,643.876404494382,153.5625C641.6713483146067,153.5625,641.6713483146067,156.8125,639.4662921348314,156.8125C637.2612359550561,156.8125,637.2612359550561,156,635.0561797752808,156C632.8511235955056,156,632.8511235955056,154.375,630.6460674157303,154.375C628.441011235955,154.375,628.441011235955,153.5625,626.2359550561797,153.5625C624.0308988764045,153.5625,624.0308988764045,153.5625,621.8258426966293,153.5625C619.620786516854,153.5625,619.620786516854,153.5625,617.4157303370787,153.5625C615.2106741573034,153.5625,615.2106741573034,153.5625,613.0056179775281,153.5625C610.8005617977528,153.5625,610.8005617977528,152.75,608.5955056179776,152.75C606.3904494382023,152.75,606.3904494382023,153.5625,604.185393258427,153.5625C601.9803370786517,153.5625,601.9803370786517,152.75,599.7752808988764,152.75C597.5702247191011,152.75,597.5702247191011,155.1875,595.3651685393259,155.1875C593.1601123595506,155.1875,593.1601123595506,156,590.9550561797753,156C588.75,156,588.75,151.125,586.5449438202247,151.125C584.3398876404494,151.125,584.3398876404494,156,582.1348314606741,156C579.9297752808989,156,579.9297752808989,152.75,577.7247191011236,152.75C575.5196629213483,152.75,575.5196629213483,157.625,573.314606741573,157.625C571.1095505617977,157.625,571.1095505617977,156.8125,568.9044943820224,156.8125C566.6994382022472,156.8125,566.6994382022472,157.625,564.4943820224719,157.625C562.2893258426966,157.625,562.2893258426966,161.6875,560.0842696629213,161.6875C557.879213483146,161.6875,557.879213483146,160.875,555.6741573033707,160.875C553.4691011235955,160.875,553.4691011235955,165.75,551.2640449438203,165.75C549.058988764045,165.75,549.058988764045,156.8125,546.8539325842697,156.8125C544.6488764044944,156.8125,544.6488764044944,161.6875,542.4438202247192,161.6875C540.2387640449439,161.6875,540.2387640449439,162.5,538.0337078651686,162.5C535.8286516853933,162.5,535.8286516853933,166.5625,533.623595505618,166.5625C531.4185393258426,166.5625,531.4185393258426,161.6875,529.2134831460673,161.6875C527.0084269662921,161.6875,527.0084269662921,163.3125,524.8033707865168,163.3125C522.5983146067415,163.3125,522.5983146067415,159.25,520.3932584269662,159.25C518.1882022471909,159.25,518.1882022471909,167.375,515.9831460674158,167.375C513.7780898876405,167.375,513.7780898876405,165.75,511.5730337078652,165.75C509.3679775280899,165.75,509.3679775280899,168.1875,507.1629213483146,168.1875C504.95786516853934,168.1875,504.95786516853934,170.625,502.75280898876406,170.625C500.5477528089888,170.625,500.5477528089888,172.25,498.3426966292135,172.25C496.1376404494382,172.25,496.1376404494382,171.4375,493.9325842696629,171.4375C491.72752808988764,171.4375,491.72752808988764,173.875,489.52247191011236,173.875C487.3174157303371,173.875,487.3174157303371,173.0625,485.11235955056173,173.0625C482.9073033707865,173.0625,482.9073033707865,175.5,480.7022471910113,175.5C478.497191011236,175.5,478.497191011236,171.4375,476.2921348314607,171.4375C474.08707865168543,171.4375,474.08707865168543,176.3125,471.88202247191015,176.3125C469.67696629213486,176.3125,469.67696629213486,179.5625,467.4719101123596,179.5625C465.2668539325843,179.5625,465.2668539325843,171.4375,463.061797752809,171.4375C460.8567415730337,171.4375,460.8567415730337,169,458.6516853932584,169C456.4466292134831,169,456.4466292134831,171.4375,454.2415730337078,171.4375C452.03651685393254,171.4375,452.03651685393254,169.8125,449.83146067415726,169.8125C447.62640449438203,169.8125,447.62640449438203,169.8125,445.4213483146068,169.8125C443.2162921348315,169.8125,443.2162921348315,167.375,441.01123595505624,167.375C438.80617977528095,167.375,438.80617977528095,169,436.6011235955056,169C434.39606741573033,169,434.39606741573033,170.625,432.19101123595505,170.625C429.98595505617976,170.625,429.98595505617976,171.4375,427.7808988764045,171.4375C425.5758426966292,171.4375,425.5758426966292,168.1875,423.3707865168539,168.1875C421.1657303370786,168.1875,421.1657303370786,165.75,418.96067415730334,165.75C416.75561797752806,165.75,416.75561797752806,170.625,414.5505617977528,170.625C412.34550561797755,170.625,412.34550561797755,173.0625,410.14044943820227,173.0625C407.935393258427,173.0625,407.935393258427,179.5625,405.7303370786517,179.5625C403.5252808988764,179.5625,403.5252808988764,183.625,401.32022471910113,183.625C399.11516853932585,183.625,399.11516853932585,180.375,396.91011235955057,180.375C394.7050561797753,180.375,394.7050561797753,181.1875,392.5,181.1875C390.2949438202247,181.1875,390.2949438202247,190.9375,388.08988764044943,190.9375C385.88483146067415,190.9375,385.88483146067415,190.125,383.67977528089887,190.125C381.4747191011236,190.125,381.4747191011236,201.5,379.2696629213483,201.5C377.064606741573,201.5,377.064606741573,195,374.85955056179773,195C372.65449438202245,195,372.65449438202245,197.4375,370.44943820224717,197.4375C368.2443820224719,197.4375,368.2443820224719,208,366.0393258426966,208C363.8342696629213,208,363.8342696629213,205.5625,361.6292134831461,205.5625C359.4241573033708,205.5625,359.4241573033708,197.4375,357.2191011235955,197.4375C355.01404494382024,197.4375,355.01404494382024,210.4375,352.80898876404495,210.4375C350.60393258426967,210.4375,350.60393258426967,245.375,348.3988764044944,245.375C346.1938202247191,245.375,346.1938202247191,194.1875,343.9887640449438,194.1875C341.78370786516854,194.1875,341.78370786516854,202.3125,339.57865168539325,202.3125C337.37359550561797,202.3125,337.37359550561797,231.5625,335.1685393258427,231.5625C332.9634831460674,231.5625,332.9634831460674,185.25,330.7584269662921,185.25C328.5533707865169,185.25,328.5533707865169,189.3125,326.3483146067416,189.3125C324.1432584269663,189.3125,324.1432584269663,178.75,321.938202247191,178.75C319.7331460674157,178.75,319.7331460674157,160.0625,317.5280898876404,160.0625C315.32303370786514,160.0625,315.32303370786514,152.75,313.11797752808985,152.75C310.9129213483146,152.75,310.9129213483146,148.6875,308.70786516853934,148.6875C306.50280898876406,148.6875,306.50280898876406,147.0625,304.2977528089888,147.0625C302.0926966292135,147.0625,302.0926966292135,146.25,299.8876404494382,146.25C297.6825842696629,146.25,297.6825842696629,144.625,295.47752808988764,144.625C293.27247191011236,144.625,293.27247191011236,143.8125,291.0674157303371,143.8125C288.8623595505618,143.8125,288.8623595505618,143.8125,286.6573033707865,143.8125C284.4522471910112,143.8125,284.4522471910112,144.625,282.24719101123594,144.625C280.04213483146066,144.625,280.04213483146066,144.625,277.8370786516854,144.625C275.6320224719101,144.625,275.6320224719101,142.1875,273.42696629213486,142.1875C271.2219101123596,142.1875,271.2219101123596,142.1875,269.0168539325843,142.1875C266.81179775280896,142.1875,266.81179775280896,142.1875,264.6067415730337,142.1875C262.4016853932584,142.1875,262.4016853932584,141.375,260.1966292134831,141.375C257.9915730337078,141.375,257.9915730337078,141.375,255.7865168539326,141.375C253.5814606741573,141.375,253.5814606741573,139.75,251.37640449438203,139.75C249.17134831460675,139.75,249.17134831460675,141.375,246.96629213483146,141.375C244.76123595505618,141.375,244.76123595505618,139.75,242.55617977528087,139.75C240.3511235955056,139.75,240.3511235955056,138.125,238.14606741573036,138.125C235.94101123595507,138.125,235.94101123595507,136.5,233.7359550561798,136.5C231.53089887640448,136.5,231.53089887640448,138.125,229.3258426966292,138.125C227.1207865168539,138.125,227.1207865168539,138.125,224.91573033707863,138.125C222.71067415730337,138.125,222.71067415730337,138.125,220.50561797752812,138.125C218.30056179775283,138.125,218.30056179775283,138.9375,216.09550561797752,138.9375C213.89044943820224,138.9375,213.89044943820224,138.125,211.68539325842696,138.125C209.48033707865167,138.125,209.48033707865167,138.125,207.2752808988764,138.125C205.07022471910113,138.125,205.07022471910113,138.9375,202.86516853932585,138.9375C200.66011235955057,138.9375,200.66011235955057,138.125,198.45505617977528,138.125C196.25,138.125,196.25,138.125,194.04494382022472,138.125C191.83988764044943,138.125,191.83988764044943,138.125,189.63483146067415,138.125C187.42977528089887,138.125,187.42977528089887,137.3125,185.22471910112358,137.3125C183.0196629213483,137.3125,183.0196629213483,138.125,180.81460674157304,138.125C178.60955056179776,138.125,178.60955056179776,138.125,176.40449438202248,138.125C174.1994382022472,138.125,174.1994382022472,136.5,171.9943820224719,136.5C169.78932584269663,136.5,169.78932584269663,136.5,167.58426966292134,136.5C165.3792134831461,136.5,165.3792134831461,136.5,163.1741573033708,136.5C160.96910112359552,136.5,160.96910112359552,137.3125,158.7640449438202,137.3125C156.55898876404495,137.3125,156.55898876404495,138.125,154.35393258426967,138.125C152.1488764044944,138.125,152.1488764044944,136.5,149.9438202247191,136.5C147.73876404494382,136.5,147.73876404494382,137.3125,145.53370786516854,137.3125C143.32865168539325,137.3125,143.32865168539325,138.125,141.12359550561797,138.125C138.9185393258427,138.125,138.9185393258427,138.125,136.71348314606743,138.125C134.50842696629212,138.125,134.50842696629212,138.125,132.30337078651684,138.125C130.09831460674155,138.125,130.09831460674155,138.125,127.8932584269663,138.125C125.68820224719101,138.125,125.68820224719101,138.125,123.48314606741573,138.125C121.27808988764045,138.125,121.27808988764045,138.125,119.07303370786518,138.125C116.86797752808988,138.125,116.86797752808988,137.3125,114.6629213483146,137.3125C112.45786516853933,137.3125,112.45786516853933,138.125,110.25280898876406,138.125C108.04775280898878,138.125,108.04775280898878,138.125,105.84269662921348,138.125C103.63764044943821,138.125,103.63764044943821,138.9375,101.43258426966293,138.9375C99.22752808988764,138.9375,99.22752808988764,140.5625,97.02247191011236,140.5625C94.81741573033707,140.5625,94.81741573033707,139.75,92.61235955056179,139.75C90.40730337078651,139.75,90.40730337078651,138.9375,88.20224719101124,138.9375C85.99719101123596,138.9375,85.99719101123596,138.125,83.79213483146067,138.125C81.58707865168539,138.125,81.58707865168539,139.75,79.3820224719101,139.75C77.17696629213484,139.75,77.17696629213484,138.9375,74.97191011235955,138.9375C72.76685393258427,138.9375,72.76685393258427,139.75,70.56179775280899,139.75C68.3567415730337,139.75,68.3567415730337,139.75,66.15168539325842,139.75C63.94662921348314,139.75,63.94662921348314,138.9375,61.741573033707866,138.9375C59.53651685393258,138.9375,59.53651685393258,139.75,57.3314606741573,139.75C55.126404494382015,139.75,55.126404494382015,138.125,52.92134831460674,138.125C50.71629213483146,138.125,50.71629213483146,138.9375,48.51123595505618,138.9375C46.306179775280896,138.9375,46.306179775280896,139.75,44.10112359550562,139.75C41.896067415730336,139.75,41.896067415730336,138.9375,39.69101123595505,138.9375C37.485955056179776,138.9375,37.485955056179776,138.9375,35.28089887640449,138.9375C33.07584269662921,138.9375,33.07584269662921,138.9375,30.870786516853933,138.9375C28.66573033707865,138.9375,28.66573033707865,138.125,26.46067415730337,138.125C24.25561797752809,138.125,24.25561797752809,138.125,22.05056179775281,138.125C19.84550561797753,138.125,19.84550561797753,138.125,17.640449438202246,138.125C15.435393258426966,138.125,15.435393258426966,139.75,13.230337078651685,139.75C11.025280898876403,139.75,11.025280898876403,138.125,8.820224719101123,138.125C6.615168539325842,138.125,6.615168539325842,138.9375,4.410112359550562,138.9375C2.205056179775281,138.9375,2.205056179775281,138.9375,0,138.9375Z"><title>Javier Milei</title></path><path fill="#4a90e2" d="M0,121.06249999999999C2.205056179775281,121.06249999999999,2.205056179775281,121.06249999999999,4.410112359550562,121.06249999999999C6.615168539325842,121.06249999999999,6.615168539325842,121.875,8.820224719101123,121.875C11.025280898876403,121.875,11.025280898876403,120.25,13.230337078651685,120.25C15.435393258426966,120.25,15.435393258426966,121.875,17.640449438202246,121.875C19.84550561797753,121.875,19.84550561797753,121.875,22.05056179775281,121.875C24.25561797752809,121.875,24.25561797752809,121.875,26.46067415730337,121.875C28.66573033707865,121.875,28.66573033707865,121.06249999999999,30.870786516853933,121.06249999999999C33.07584269662921,121.06249999999999,33.07584269662921,121.06249999999999,35.28089887640449,121.06249999999999C37.485955056179776,121.06249999999999,37.485955056179776,121.06249999999999,39.69101123595505,121.06249999999999C41.896067415730336,121.06249999999999,41.896067415730336,120.25,44.10112359550562,120.25C46.306179775280896,120.25,46.306179775280896,121.06249999999999,48.51123595505618,121.06249999999999C50.71629213483146,121.06249999999999,50.71629213483146,121.875,52.92134831460674,121.875C55.126404494382015,121.875,55.126404494382015,120.25,57.3314606741573,120.25C59.53651685393258,120.25,59.53651685393258,121.06249999999999,61.741573033707866,121.06249999999999C63.94662921348314,121.06249999999999,63.94662921348314,120.25,66.15168539325842,120.25C68.3567415730337,120.25,68.3567415730337,120.25,70.56179775280899,120.25C72.76685393258427,120.25,72.76685393258427,121.06249999999999,74.97191011235955,121.06249999999999C77.17696629213484,121.06249999999999,77.17696629213484,120.25,79.3820224719101,120.25C81.58707865168539,120.25,81.58707865168539,121.875,83.79213483146067,121.875C85.99719101123596,121.875,85.99719101123596,121.06249999999999,88.20224719101124,121.06249999999999C90.40730337078651,121.06249999999999,90.40730337078651,120.25,92.61235955056179,120.25C94.81741573033707,120.25,94.81741573033707,119.4375,97.02247191011236,119.4375C99.22752808988764,119.4375,99.22752808988764,121.06249999999999,101.43258426966293,121.06249999999999C103.63764044943821,121.06249999999999,103.63764044943821,121.875,105.84269662921348,121.875C108.04775280898878,121.875,108.04775280898878,121.875,110.25280898876406,121.875C112.45786516853933,121.875,112.45786516853933,122.68750000000001,114.6629213483146,122.68750000000001C116.86797752808988,122.68750000000001,116.86797752808988,121.875,119.07303370786518,121.875C121.27808988764045,121.875,121.27808988764045,121.875,123.48314606741573,121.875C125.68820224719101,121.875,125.68820224719101,121.875,127.8932584269663,121.875C130.09831460674155,121.875,130.09831460674155,121.875,132.30337078651684,121.875C134.50842696629212,121.875,134.50842696629212,121.875,136.71348314606743,121.875C138.9185393258427,121.875,138.9185393258427,121.875,141.12359550561797,121.875C143.32865168539325,121.875,143.32865168539325,122.68750000000001,145.53370786516854,122.68750000000001C147.73876404494382,122.68750000000001,147.73876404494382,123.5,149.9438202247191,123.5C152.1488764044944,123.5,152.1488764044944,121.875,154.35393258426967,121.875C156.55898876404495,121.875,156.55898876404495,122.68750000000001,158.7640449438202,122.68750000000001C160.96910112359552,122.68750000000001,160.96910112359552,123.5,163.1741573033708,123.5C165.3792134831461,123.5,165.3792134831461,123.5,167.58426966292134,123.5C169.78932584269663,123.5,169.78932584269663,123.5,171.9943820224719,123.5C174.1994382022472,123.5,174.1994382022472,121.875,176.40449438202248,121.875C178.60955056179776,121.875,178.60955056179776,121.875,180.81460674157304,121.875C183.0196629213483,121.875,183.0196629213483,122.68750000000001,185.22471910112358,122.68750000000001C187.42977528089887,122.68750000000001,187.42977528089887,121.875,189.63483146067415,121.875C191.83988764044943,121.875,191.83988764044943,121.875,194.04494382022472,121.875C196.25,121.875,196.25,121.875,198.45505617977528,121.875C200.66011235955057,121.875,200.66011235955057,121.06249999999999,202.86516853932585,121.06249999999999C205.07022471910113,121.06249999999999,205.07022471910113,121.875,207.2752808988764,121.875C209.48033707865167,121.875,209.48033707865167,121.875,211.68539325842696,121.875C213.89044943820224,121.875,213.89044943820224,121.06249999999999,216.09550561797752,121.06249999999999C218.30056179775283,121.06249999999999,218.30056179775283,121.875,220.50561797752812,121.875C222.71067415730337,121.875,222.71067415730337,121.875,224.91573033707863,121.875C227.1207865168539,121.875,227.1207865168539,121.875,229.3258426966292,121.875C231.53089887640448,121.875,231.53089887640448,123.5,233.7359550561798,123.5C235.94101123595507,123.5,235.94101123595507,121.875,238.14606741573036,121.875C240.3511235955056,121.875,240.3511235955056,120.25,242.55617977528087,120.25C244.76123595505618,120.25,244.76123595505618,118.62500000000001,246.96629213483146,118.62500000000001C249.17134831460675,118.62500000000001,249.17134831460675,120.25,251.37640449438203,120.25C253.5814606741573,120.25,253.5814606741573,118.62500000000001,255.7865168539326,118.62500000000001C257.9915730337078,118.62500000000001,257.9915730337078,118.62500000000001,260.1966292134831,118.62500000000001C262.4016853932584,118.62500000000001,262.4016853932584,117.8125,264.6067415730337,117.8125C266.81179775280896,117.8125,266.81179775280896,117.8125,269.0168539325843,117.8125C271.2219101123596,117.8125,271.2219101123596,117.8125,273.42696629213486,117.8125C275.6320224719101,117.8125,275.6320224719101,115.375,277.8370786516854,115.375C280.04213483146066,115.375,280.04213483146066,115.375,282.24719101123594,115.375C284.4522471910112,115.375,284.4522471910112,116.1875,286.6573033707865,116.1875C288.8623595505618,116.1875,288.8623595505618,116.1875,291.0674157303371,116.1875C293.27247191011236,116.1875,293.27247191011236,115.375,295.47752808988764,115.375C297.6825842696629,115.375,297.6825842696629,113.75,299.8876404494382,113.75C302.0926966292135,113.75,302.0926966292135,112.93749999999999,304.2977528089888,112.93749999999999C306.50280898876406,112.93749999999999,306.50280898876406,111.3125,308.70786516853934,111.3125C310.9129213483146,111.3125,310.9129213483146,107.25,313.11797752808985,107.25C315.32303370786514,107.25,315.32303370786514,99.9375,317.5280898876404,99.9375C319.7331460674157,99.9375,319.7331460674157,81.25,321.938202247191,81.25C324.1432584269663,81.25,324.1432584269663,70.6875,326.3483146067416,70.6875C328.5533707865169,70.6875,328.5533707865169,74.75,330.7584269662921,74.75C332.9634831460674,74.75,332.9634831460674,28.4375,335.1685393258427,28.4375C337.37359550561797,28.4375,337.37359550561797,57.687500000000014,339.57865168539325,57.687500000000014C341.78370786516854,57.687500000000014,341.78370786516854,65.81250000000001,343.9887640449438,65.81250000000001C346.1938202247191,65.81250000000001,346.1938202247191,14.625000000000005,348.3988764044944,14.625000000000005C350.60393258426967,14.625000000000005,350.60393258426967,49.562500000000014,352.80898876404495,49.562500000000014C355.01404494382024,49.562500000000014,355.01404494382024,62.56249999999999,357.2191011235955,62.56249999999999C359.4241573033708,62.56249999999999,359.4241573033708,54.43749999999999,361.6292134831461,54.43749999999999C363.8342696629213,54.43749999999999,363.8342696629213,51.999999999999986,366.0393258426966,51.999999999999986C368.2443820224719,51.999999999999986,368.2443820224719,62.56249999999999,370.44943820224717,62.56249999999999C372.65449438202245,62.56249999999999,372.65449438202245,65,374.85955056179773,65C377.064606741573,65,377.064606741573,58.49999999999999,379.2696629213483,58.49999999999999C381.4747191011236,58.49999999999999,381.4747191011236,69.87500000000001,383.67977528089887,69.87500000000001C385.88483146067415,69.87500000000001,385.88483146067415,69.0625,388.08988764044943,69.0625C390.2949438202247,69.0625,390.2949438202247,78.8125,392.5,78.8125C394.7050561797753,78.8125,394.7050561797753,79.625,396.91011235955057,79.625C399.11516853932585,79.625,399.11516853932585,76.37499999999999,401.32022471910113,76.37499999999999C403.5252808988764,76.37499999999999,403.5252808988764,80.43749999999999,405.7303370786517,80.43749999999999C407.935393258427,80.43749999999999,407.935393258427,86.9375,410.14044943820227,86.9375C412.34550561797755,86.9375,412.34550561797755,89.375,414.5505617977528,89.375C416.75561797752806,89.375,416.75561797752806,94.25000000000001,418.96067415730334,94.25000000000001C421.1657303370786,94.25000000000001,421.1657303370786,91.8125,423.3707865168539,91.8125C425.5758426966292,91.8125,425.5758426966292,88.56249999999999,427.7808988764045,88.56249999999999C429.98595505617976,88.56249999999999,429.98595505617976,89.375,432.19101123595505,89.375C434.39606741573033,89.375,434.39606741573033,91,436.6011235955056,91C438.80617977528095,91,438.80617977528095,92.62499999999999,441.01123595505624,92.62499999999999C443.2162921348315,92.62499999999999,443.2162921348315,90.18750000000001,445.4213483146068,90.18750000000001C447.62640449438203,90.18750000000001,447.62640449438203,90.18750000000001,449.83146067415726,90.18750000000001C452.03651685393254,90.18750000000001,452.03651685393254,88.56249999999999,454.2415730337078,88.56249999999999C456.4466292134831,88.56249999999999,456.4466292134831,91,458.6516853932584,91C460.8567415730337,91,460.8567415730337,88.56249999999999,463.061797752809,88.56249999999999C465.2668539325843,88.56249999999999,465.2668539325843,80.43749999999999,467.4719101123596,80.43749999999999C469.67696629213486,80.43749999999999,469.67696629213486,83.6875,471.88202247191015,83.6875C474.08707865168543,83.6875,474.08707865168543,88.56249999999999,476.2921348314607,88.56249999999999C478.497191011236,88.56249999999999,478.497191011236,84.49999999999999,480.7022471910113,84.49999999999999C482.9073033707865,84.49999999999999,482.9073033707865,86.9375,485.11235955056173,86.9375C487.3174157303371,86.9375,487.3174157303371,86.12500000000001,489.52247191011236,86.12500000000001C491.72752808988764,86.12500000000001,491.72752808988764,88.56249999999999,493.9325842696629,88.56249999999999C496.1376404494382,88.56249999999999,496.1376404494382,87.75,498.3426966292135,87.75C500.5477528089888,87.75,500.5477528089888,89.375,502.75280898876406,89.375C504.95786516853934,89.375,504.95786516853934,91.8125,507.1629213483146,91.8125C509.3679775280899,91.8125,509.3679775280899,94.25000000000001,511.5730337078652,94.25000000000001C513.7780898876405,94.25000000000001,513.7780898876405,92.62499999999999,515.9831460674158,92.62499999999999C518.1882022471909,92.62499999999999,518.1882022471909,100.74999999999999,520.3932584269662,100.74999999999999C522.5983146067415,100.74999999999999,522.5983146067415,96.68749999999999,524.8033707865168,96.68749999999999C527.0084269662921,96.68749999999999,527.0084269662921,98.31250000000001,529.2134831460673,98.31250000000001C531.4185393258426,98.31250000000001,531.4185393258426,93.4375,533.623595505618,93.4375C535.8286516853933,93.4375,535.8286516853933,97.5,538.0337078651686,97.5C540.2387640449439,97.5,540.2387640449439,98.31250000000001,542.4438202247192,98.31250000000001C544.6488764044944,98.31250000000001,544.6488764044944,103.1875,546.8539325842697,103.1875C549.058988764045,103.1875,549.058988764045,94.25000000000001,551.2640449438203,94.25000000000001C553.4691011235955,94.25000000000001,553.4691011235955,99.125,555.6741573033707,99.125C557.879213483146,99.125,557.879213483146,98.31250000000001,560.0842696629213,98.31250000000001C562.2893258426966,98.31250000000001,562.2893258426966,102.37500000000001,564.4943820224719,102.37500000000001C566.6994382022472,102.37500000000001,566.6994382022472,103.1875,568.9044943820224,103.1875C571.1095505617977,103.1875,571.1095505617977,102.37500000000001,573.314606741573,102.37500000000001C575.5196629213483,102.37500000000001,575.5196629213483,107.25,577.7247191011236,107.25C579.9297752808989,107.25,579.9297752808989,104,582.1348314606741,104C584.3398876404494,104,584.3398876404494,108.87499999999999,586.5449438202247,108.87499999999999C588.75,108.87499999999999,588.75,104,590.9550561797753,104C593.1601123595506,104,593.1601123595506,104.81249999999999,595.3651685393259,104.81249999999999C597.5702247191011,104.81249999999999,597.5702247191011,107.25,599.7752808988764,107.25C601.9803370786517,107.25,601.9803370786517,106.43750000000001,604.185393258427,106.43750000000001C606.3904494382023,106.43750000000001,606.3904494382023,107.25,608.5955056179776,107.25C610.8005617977528,107.25,610.8005617977528,106.43750000000001,613.0056179775281,106.43750000000001C615.2106741573034,106.43750000000001,615.2106741573034,106.43750000000001,617.4157303370787,106.43750000000001C619.620786516854,106.43750000000001,619.620786516854,106.43750000000001,621.8258426966293,106.43750000000001C624.0308988764045,106.43750000000001,624.0308988764045,106.43750000000001,626.2359550561797,106.43750000000001C628.441011235955,106.43750000000001,628.441011235955,105.625,630.6460674157303,105.625C632.8511235955056,105.625,632.8511235955056,104,635.0561797752808,104C637.2612359550561,104,637.2612359550561,103.1875,639.4662921348314,103.1875C641.6713483146067,103.1875,641.6713483146067,106.43750000000001,643.876404494382,106.43750000000001C646.0814606741574,106.43750000000001,646.0814606741574,102.37500000000001,648.2865168539327,102.37500000000001C650.4915730337079,102.37500000000001,650.4915730337079,100.74999999999999,652.6966292134832,100.74999999999999C654.9016853932585,100.74999999999999,654.9016853932585,100.74999999999999,657.1067415730338,100.74999999999999C659.3117977528091,100.74999999999999,659.3117977528091,101.5625,661.5168539325842,101.5625C663.7219101123595,101.5625,663.7219101123595,102.37500000000001,665.9269662921348,102.37500000000001C668.1320224719101,102.37500000000001,668.1320224719101,101.5625,670.3370786516854,101.5625C672.5421348314607,101.5625,672.5421348314607,103.1875,674.7471910112359,103.1875C676.9522471910112,103.1875,676.9522471910112,100.74999999999999,679.1573033707865,100.74999999999999C681.3623595505618,100.74999999999999,681.3623595505618,101.5625,683.5674157303371,101.5625C685.7724719101124,101.5625,685.7724719101124,102.37500000000001,687.9775280898876,102.37500000000001C690.1825842696629,102.37500000000001,690.1825842696629,103.1875,692.3876404494382,103.1875C694.5926966292135,103.1875,694.5926966292135,104,696.7977528089888,104C699.0028089887641,104,699.0028089887641,104.81249999999999,701.2078651685393,104.81249999999999C703.4129213483146,104.81249999999999,703.4129213483146,104.81249999999999,705.6179775280899,104.81249999999999C707.8230337078652,104.81249999999999,707.8230337078652,105.625,710.0280898876405,105.625C712.2331460674158,105.625,712.2331460674158,105.625,714.438202247191,105.625C716.6432584269663,105.625,716.6432584269663,104.81249999999999,718.8483146067416,104.81249999999999C721.0533707865169,104.81249999999999,721.0533707865169,106.43750000000001,723.2584269662922,106.43750000000001C725.4634831460675,106.43750000000001,725.4634831460675,104.81249999999999,727.6685393258427,104.81249999999999C729.8735955056179,104.81249999999999,729.8735955056179,104.81249999999999,732.0786516853932,104.81249999999999C734.2837078651685,104.81249999999999,734.2837078651685,103.1875,736.4887640449438,103.1875C738.693820224719,103.1875,738.693820224719,105.625,740.8988764044943,105.625C743.1039325842696,105.625,743.1039325842696,104.81249999999999,745.3089887640449,104.81249999999999C747.5140449438202,104.81249999999999,747.5140449438202,104.81249999999999,749.7191011235955,104.81249999999999C751.9241573033707,104.81249999999999,751.9241573033707,106.43750000000001,754.129213483146,106.43750000000001C756.3342696629213,106.43750000000001,756.3342696629213,105.625,758.5393258426966,105.625C760.7443820224719,105.625,760.7443820224719,104.81249999999999,762.9494382022473,104.81249999999999C765.1544943820224,104.81249999999999,765.1544943820224,106.43750000000001,767.3595505617977,106.43750000000001C769.564606741573,106.43750000000001,769.564606741573,106.43750000000001,771.7696629213483,106.43750000000001C773.9747191011236,106.43750000000001,773.9747191011236,106.43750000000001,776.1797752808989,106.43750000000001C778.3848314606741,106.43750000000001,778.3848314606741,107.25,780.5898876404494,107.25C782.7949438202247,107.25,782.7949438202247,107.25,785,107.25L785,120.25C782.7949438202247,120.25,782.7949438202247,120.25,780.5898876404494,120.25C778.3848314606741,120.25,778.3848314606741,119.4375,776.1797752808989,119.4375C773.9747191011236,119.4375,773.9747191011236,119.4375,771.7696629213483,119.4375C769.564606741573,119.4375,769.564606741573,121.06249999999999,767.3595505617977,121.06249999999999C765.1544943820224,121.06249999999999,765.1544943820224,121.06249999999999,762.9494382022473,121.06249999999999C760.7443820224719,121.06249999999999,760.7443820224719,120.25,758.5393258426966,120.25C756.3342696629213,120.25,756.3342696629213,121.06249999999999,754.129213483146,121.06249999999999C751.9241573033707,121.06249999999999,751.9241573033707,119.4375,749.7191011235955,119.4375C747.5140449438202,119.4375,747.5140449438202,121.06249999999999,745.3089887640449,121.06249999999999C743.1039325842696,121.06249999999999,743.1039325842696,120.25,740.8988764044943,120.25C738.693820224719,120.25,738.693820224719,117.8125,736.4887640449438,117.8125C734.2837078651685,117.8125,734.2837078651685,119.4375,732.0786516853932,119.4375C729.8735955056179,119.4375,729.8735955056179,119.4375,727.6685393258427,119.4375C725.4634831460675,119.4375,725.4634831460675,121.06249999999999,723.2584269662922,121.06249999999999C721.0533707865169,121.06249999999999,721.0533707865169,121.06249999999999,718.8483146067416,121.06249999999999C716.6432584269663,121.06249999999999,716.6432584269663,121.875,714.438202247191,121.875C712.2331460674158,121.875,712.2331460674158,120.25,710.0280898876405,120.25C707.8230337078652,120.25,707.8230337078652,121.06249999999999,705.6179775280899,121.06249999999999C703.4129213483146,121.06249999999999,703.4129213483146,121.06249999999999,701.2078651685393,121.06249999999999C699.0028089887641,121.06249999999999,699.0028089887641,120.25,696.7977528089888,120.25C694.5926966292135,120.25,694.5926966292135,121.06249999999999,692.3876404494382,121.06249999999999C690.1825842696629,121.06249999999999,690.1825842696629,118.62500000000001,687.9775280898876,118.62500000000001C685.7724719101124,118.62500000000001,685.7724719101124,119.4375,683.5674157303371,119.4375C681.3623595505618,119.4375,681.3623595505618,118.62500000000001,679.1573033707865,118.62500000000001C676.9522471910112,118.62500000000001,676.9522471910112,121.06249999999999,674.7471910112359,121.06249999999999C672.5421348314607,121.06249999999999,672.5421348314607,119.4375,670.3370786516854,119.4375C668.1320224719101,119.4375,668.1320224719101,120.25,665.9269662921348,120.25C663.7219101123595,120.25,663.7219101123595,119.4375,661.5168539325842,119.4375C659.3117977528091,119.4375,659.3117977528091,120.25,657.1067415730338,120.25C654.9016853932585,120.25,654.9016853932585,120.25,652.6966292134832,120.25C650.4915730337079,120.25,650.4915730337079,120.25,648.2865168539327,120.25C646.0814606741574,120.25,646.0814606741574,122.68750000000001,643.876404494382,122.68750000000001C641.6713483146067,122.68750000000001,641.6713483146067,121.06249999999999,639.4662921348314,121.06249999999999C637.2612359550561,121.06249999999999,637.2612359550561,121.875,635.0561797752808,121.875C632.8511235955056,121.875,632.8511235955056,121.875,630.6460674157303,121.875C628.441011235955,121.875,628.441011235955,122.68750000000001,626.2359550561797,122.68750000000001C624.0308988764045,122.68750000000001,624.0308988764045,121.06249999999999,621.8258426966293,121.06249999999999C619.620786516854,121.06249999999999,619.620786516854,124.3125,617.4157303370787,124.3125C615.2106741573034,124.3125,615.2106741573034,124.3125,613.0056179775281,124.3125C610.8005617977528,124.3125,610.8005617977528,123.5,608.5955056179776,123.5C606.3904494382023,123.5,606.3904494382023,122.68750000000001,604.185393258427,122.68750000000001C601.9803370786517,122.68750000000001,601.9803370786517,121.875,599.7752808988764,121.875C597.5702247191011,121.875,597.5702247191011,121.06249999999999,595.3651685393259,121.06249999999999C593.1601123595506,121.06249999999999,593.1601123595506,123.5,590.9550561797753,123.5C588.75,123.5,588.75,123.5,586.5449438202247,123.5C584.3398876404494,123.5,584.3398876404494,121.875,582.1348314606741,121.875C579.9297752808989,121.875,579.9297752808989,120.25,577.7247191011236,120.25C575.5196629213483,120.25,575.5196629213483,120.25,573.314606741573,120.25C571.1095505617977,120.25,571.1095505617977,117.8125,568.9044943820224,117.8125C566.6994382022472,117.8125,566.6994382022472,118.62500000000001,564.4943820224719,118.62500000000001C562.2893258426966,118.62500000000001,562.2893258426966,121.06249999999999,560.0842696629213,121.06249999999999C557.879213483146,121.06249999999999,557.879213483146,118.62500000000001,555.6741573033707,118.62500000000001C553.4691011235955,118.62500000000001,553.4691011235955,116.99999999999999,551.2640449438203,116.99999999999999C549.058988764045,116.99999999999999,549.058988764045,117.8125,546.8539325842697,117.8125C544.6488764044944,117.8125,544.6488764044944,117.8125,542.4438202247192,117.8125C540.2387640449439,117.8125,540.2387640449439,120.25,538.0337078651686,120.25C535.8286516853933,120.25,535.8286516853933,112.93749999999999,533.623595505618,112.93749999999999C531.4185393258426,112.93749999999999,531.4185393258426,117.8125,529.2134831460673,117.8125C527.0084269662921,117.8125,527.0084269662921,114.56250000000001,524.8033707865168,114.56250000000001C522.5983146067415,114.56250000000001,522.5983146067415,116.99999999999999,520.3932584269662,116.99999999999999C518.1882022471909,116.99999999999999,518.1882022471909,112.125,515.9831460674158,112.125C513.7780898876405,112.125,513.7780898876405,113.75,511.5730337078652,113.75C509.3679775280899,113.75,509.3679775280899,114.56250000000001,507.1629213483146,114.56250000000001C504.95786516853934,114.56250000000001,504.95786516853934,113.75,502.75280898876406,113.75C500.5477528089888,113.75,500.5477528089888,113.75,498.3426966292135,113.75C496.1376404494382,113.75,496.1376404494382,114.56250000000001,493.9325842696629,114.56250000000001C491.72752808988764,114.56250000000001,491.72752808988764,113.75,489.52247191011236,113.75C487.3174157303371,113.75,487.3174157303371,109.6875,485.11235955056173,109.6875C482.9073033707865,109.6875,482.9073033707865,110.50000000000001,480.7022471910113,110.50000000000001C478.497191011236,110.50000000000001,478.497191011236,114.56250000000001,476.2921348314607,114.56250000000001C474.08707865168543,114.56250000000001,474.08707865168543,109.6875,471.88202247191015,109.6875C469.67696629213486,109.6875,469.67696629213486,106.43750000000001,467.4719101123596,106.43750000000001C465.2668539325843,106.43750000000001,465.2668539325843,112.93749999999999,463.061797752809,112.93749999999999C460.8567415730337,112.93749999999999,460.8567415730337,120.25,458.6516853932584,120.25C456.4466292134831,120.25,456.4466292134831,119.4375,454.2415730337078,119.4375C452.03651685393254,119.4375,452.03651685393254,121.06249999999999,449.83146067415726,121.06249999999999C447.62640449438203,121.06249999999999,447.62640449438203,121.06249999999999,445.4213483146068,121.06249999999999C443.2162921348315,121.06249999999999,443.2162921348315,125.12499999999999,441.01123595505624,125.12499999999999C438.80617977528095,125.12499999999999,438.80617977528095,123.5,436.6011235955056,123.5C434.39606741573033,123.5,434.39606741573033,125.12499999999999,432.19101123595505,125.12499999999999C429.98595505617976,125.12499999999999,429.98595505617976,124.3125,427.7808988764045,124.3125C425.5758426966292,124.3125,425.5758426966292,124.3125,423.3707865168539,124.3125C421.1657303370786,124.3125,421.1657303370786,125.12499999999999,418.96067415730334,125.12499999999999C416.75561797752806,125.12499999999999,416.75561797752806,126.75000000000001,414.5505617977528,126.75000000000001C412.34550561797755,126.75000000000001,412.34550561797755,124.3125,410.14044943820227,124.3125C407.935393258427,124.3125,407.935393258427,124.3125,405.7303370786517,124.3125C403.5252808988764,124.3125,403.5252808988764,121.875,401.32022471910113,121.875C399.11516853932585,121.875,399.11516853932585,121.875,396.91011235955057,121.875C394.7050561797753,121.875,394.7050561797753,127.5625,392.5,127.5625C390.2949438202247,127.5625,390.2949438202247,127.5625,388.08988764044943,127.5625C385.88483146067415,127.5625,385.88483146067415,125.12499999999999,383.67977528089887,125.12499999999999C381.4747191011236,125.12499999999999,381.4747191011236,120.25,379.2696629213483,120.25C377.064606741573,120.25,377.064606741573,128.375,374.85955056179773,128.375C372.65449438202245,128.375,372.65449438202245,129.1875,370.44943820224717,129.1875C368.2443820224719,129.1875,368.2443820224719,112.125,366.0393258426966,112.125C363.8342696629213,112.125,363.8342696629213,121.06249999999999,361.6292134831461,121.06249999999999C359.4241573033708,121.06249999999999,359.4241573033708,130.8125,357.2191011235955,130.8125C355.01404494382024,130.8125,355.01404494382024,132.4375,352.80898876404495,132.4375C350.60393258426967,132.4375,350.60393258426967,82.875,348.3988764044944,82.875C346.1938202247191,82.875,346.1938202247191,125.9375,343.9887640449438,125.9375C341.78370786516854,125.9375,341.78370786516854,117.8125,339.57865168539325,117.8125C337.37359550561797,117.8125,337.37359550561797,119.4375,335.1685393258427,119.4375C332.9634831460674,119.4375,332.9634831460674,130,330.7584269662921,130C328.5533707865169,130,328.5533707865169,109.6875,326.3483146067416,109.6875C324.1432584269663,109.6875,324.1432584269663,126.75000000000001,321.938202247191,126.75000000000001C319.7331460674157,126.75000000000001,319.7331460674157,130.8125,317.5280898876404,130.8125C315.32303370786514,130.8125,315.32303370786514,130,313.11797752808985,130C310.9129213483146,130,310.9129213483146,127.5625,308.70786516853934,127.5625C306.50280898876406,127.5625,306.50280898876406,127.5625,304.2977528089888,127.5625C302.0926966292135,127.5625,302.0926966292135,126.75000000000001,299.8876404494382,126.75000000000001C297.6825842696629,126.75000000000001,297.6825842696629,128.375,295.47752808988764,128.375C293.27247191011236,128.375,293.27247191011236,127.5625,291.0674157303371,127.5625C288.8623595505618,127.5625,288.8623595505618,127.5625,286.6573033707865,127.5625C284.4522471910112,127.5625,284.4522471910112,128.375,282.24719101123594,128.375C280.04213483146066,128.375,280.04213483146066,128.375,277.8370786516854,128.375C275.6320224719101,128.375,275.6320224719101,127.5625,273.42696629213486,127.5625C271.2219101123596,127.5625,271.2219101123596,127.5625,269.0168539325843,127.5625C266.81179775280896,127.5625,266.81179775280896,127.5625,264.6067415730337,127.5625C262.4016853932584,127.5625,262.4016853932584,128.375,260.1966292134831,128.375C257.9915730337078,128.375,257.9915730337078,128.375,255.7865168539326,128.375C253.5814606741573,128.375,253.5814606741573,128.375,251.37640449438203,128.375C249.17134831460675,128.375,249.17134831460675,128.375,246.96629213483146,128.375C244.76123595505618,128.375,244.76123595505618,128.375,242.55617977528087,128.375C240.3511235955056,128.375,240.3511235955056,128.375,238.14606741573036,128.375C235.94101123595507,128.375,235.94101123595507,128.375,233.7359550561798,128.375C231.53089887640448,128.375,231.53089887640448,128.375,229.3258426966292,128.375C227.1207865168539,128.375,227.1207865168539,128.375,224.91573033707863,128.375C222.71067415730337,128.375,222.71067415730337,128.375,220.50561797752812,128.375C218.30056179775283,128.375,218.30056179775283,129.1875,216.09550561797752,129.1875C213.89044943820224,129.1875,213.89044943820224,128.375,211.68539325842696,128.375C209.48033707865167,128.375,209.48033707865167,128.375,207.2752808988764,128.375C205.07022471910113,128.375,205.07022471910113,129.1875,202.86516853932585,129.1875C200.66011235955057,129.1875,200.66011235955057,128.375,198.45505617977528,128.375C196.25,128.375,196.25,128.375,194.04494382022472,128.375C191.83988764044943,128.375,191.83988764044943,128.375,189.63483146067415,128.375C187.42977528089887,128.375,187.42977528089887,129.1875,185.22471910112358,129.1875C183.0196629213483,129.1875,183.0196629213483,128.375,180.81460674157304,128.375C178.60955056179776,128.375,178.60955056179776,128.375,176.40449438202248,128.375C174.1994382022472,128.375,174.1994382022472,128.375,171.9943820224719,128.375C169.78932584269663,128.375,169.78932584269663,128.375,167.58426966292134,128.375C165.3792134831461,128.375,165.3792134831461,128.375,163.1741573033708,128.375C160.96910112359552,128.375,160.96910112359552,127.5625,158.7640449438202,127.5625C156.55898876404495,127.5625,156.55898876404495,128.375,154.35393258426967,128.375C152.1488764044944,128.375,152.1488764044944,128.375,149.9438202247191,128.375C147.73876404494382,128.375,147.73876404494382,129.1875,145.53370786516854,129.1875C143.32865168539325,129.1875,143.32865168539325,128.375,141.12359550561797,128.375C138.9185393258427,128.375,138.9185393258427,128.375,136.71348314606743,128.375C134.50842696629212,128.375,134.50842696629212,128.375,132.30337078651684,128.375C130.09831460674155,128.375,130.09831460674155,128.375,127.8932584269663,128.375C125.68820224719101,128.375,125.68820224719101,128.375,123.48314606741573,128.375C121.27808988764045,128.375,121.27808988764045,128.375,119.07303370786518,128.375C116.86797752808988,128.375,116.86797752808988,129.1875,114.6629213483146,129.1875C112.45786516853933,129.1875,112.45786516853933,128.375,110.25280898876406,128.375C108.04775280898878,128.375,108.04775280898878,128.375,105.84269662921348,128.375C103.63764044943821,128.375,103.63764044943821,127.5625,101.43258426966293,127.5625C99.22752808988764,127.5625,99.22752808988764,127.5625,97.02247191011236,127.5625C94.81741573033707,127.5625,94.81741573033707,128.375,92.61235955056179,128.375C90.40730337078651,128.375,90.40730337078651,127.5625,88.20224719101124,127.5625C85.99719101123596,127.5625,85.99719101123596,128.375,83.79213483146067,128.375C81.58707865168539,128.375,81.58707865168539,128.375,79.3820224719101,128.375C77.17696629213484,128.375,77.17696629213484,127.5625,74.97191011235955,127.5625C72.76685393258427,127.5625,72.76685393258427,126.75000000000001,70.56179775280899,126.75000000000001C68.3567415730337,126.75000000000001,68.3567415730337,126.75000000000001,66.15168539325842,126.75000000000001C63.94662921348314,126.75000000000001,63.94662921348314,127.5625,61.741573033707866,127.5625C59.53651685393258,127.5625,59.53651685393258,128.375,57.3314606741573,128.375C55.126404494382015,128.375,55.126404494382015,128.375,52.92134831460674,128.375C50.71629213483146,128.375,50.71629213483146,127.5625,48.51123595505618,127.5625C46.306179775280896,127.5625,46.306179775280896,128.375,44.10112359550562,128.375C41.896067415730336,128.375,41.896067415730336,129.1875,39.69101123595505,129.1875C37.485955056179776,129.1875,37.485955056179776,127.5625,35.28089887640449,127.5625C33.07584269662921,127.5625,33.07584269662921,127.5625,30.870786516853933,127.5625C28.66573033707865,127.5625,28.66573033707865,128.375,26.46067415730337,128.375C24.25561797752809,128.375,24.25561797752809,128.375,22.05056179775281,128.375C19.84550561797753,128.375,19.84550561797753,128.375,17.640449438202246,128.375C15.435393258426966,128.375,15.435393258426966,128.375,13.230337078651685,128.375C11.025280898876403,128.375,11.025280898876403,128.375,8.820224719101123,128.375C6.615168539325842,128.375,6.615168539325842,127.5625,4.410112359550562,127.5625C2.205056179775281,127.5625,2.205056179775281,127.5625,0,127.5625Z"><title>Sergio Massa</title></path></g><g id="xAxis" transform="translate(0,260)" fill="none" font-size="10" font-family="sans-serif" text-anchor="middle"><path class="domain" stroke="currentColor" d="M0.5,0.5H785.5"/><g class="tick" opacity="1" transform="translate(15.935393258426966,0)"><line stroke="currentColor" y2="6"/><text fill="currentColor" y="9" dy="0.71em">12 PM</text></g><g class="tick" opacity="1" transform="translate(115.1629213483146,0)"><line stroke="currentColor" y2="6"/><text fill="currentColor" y="9" dy="0.71em">03 PM</text></g><g class="tick" opacity="1" transform="translate(214.39044943820224,0)"><line stroke="currentColor" y2="6"/><text fill="currentColor" y="9" dy="0.71em">06 PM</text></g><g class="tick" opacity="1" transform="translate(313.61797752808985,0)"><line stroke="currentColor" y2="6"/><text fill="currentColor" y="9" dy="0.71em">09 PM</text></g><g class="tick" opacity="1" transform="translate(412.84550561797755,0)"><line stroke="currentColor" y2="6"/><text fill="currentColor" y="9" dy="0.71em">Mon 13</text></g><g class="tick" opacity="1" transform="translate(512.0730337078652,0)"><line stroke="currentColor" y2="6"/><text fill="currentColor" y="9" dy="0.71em">03 AM</text></g><g class="tick" opacity="1" transform="translate(611.3005617977527,0)"><line stroke="currentColor" y2="6"/><text fill="currentColor" y="9" dy="0.71em">06 AM</text></g><g class="tick" opacity="1" transform="translate(710.5280898876405,0)"><line stroke="currentColor" y2="6"/><text fill="currentColor" y="9" dy="0.71em">09 AM</text></g></g><text y="256" x="785" text-anchor="end" style="font-family: Arial, sans-serif; font-size: 12px; fill: rgb(123, 123, 123); font-weight: bold;">Time</text><text x="4" text-anchor="start" dominant-baseline="hanging" style="font-family: Arial, sans-serif; font-size: 12px; fill: rgb(123, 123, 123); font-weight: bold;">value</text><g id="labels"><text x="348.3988764044944" y="164.125" text-anchor="middle" alignment-baseline="middle" style="font-family: Arial, sans-serif; font-size: 10px; fill: black; font-weight: bold;">Javier Milei</text><text x="335.1685393258427" y="73.93750000000001" text-anchor="middle" alignment-baseline="middle" style="font-family: Arial, sans-serif; font-size: 10px; fill: black; font-weight: bold;">Sergio Massa</text></g></g><text x="4" y="4" style="font-family: Arial, sans-serif; font-size: 12px; fill: black; font-weight: bold; dominant-baseline: hanging;"/></g></g></svg>